{"asset":{"version":"2.0","generator":"custom-script"},"scenes":[{"nodes":[0,1]}],"nodes":[{"name":"Sea","mesh":0,"translation":[0.0,0.0,0.0]},{"name":"Ship","translation":[0.0,0.4,0.0],"rotation":[0,0,0,1],"scale":[1,1,1]}],"meshes":[{"name":"SeaMesh","primitives":[{"attributes":{"POSITION":0},"indices":2,"targets":[{"POSITION":1}],"mode":4,"material":0}]}],"buffers":[{"uri":"data:application/octet-stream;base64,","byteLength":2184}],"bufferViews":[{"buffer":0,"byteOffset":0,"byteLength":768,"target":34962},{"buffer":0,"byteOffset":768,"byteLength":768,"target":34962},{"buffer":0,"byteOffset":1536,"byteLength":588,"target":34963},{"buffer":0,"byteOffset":2124,"byteLength":12,"target":null},{"buffer":0,"byteOffset":2136,"byteLength":12,"target":null},{"buffer":0,"byteOffset":2148,"byteLength":36,"target":null}],"accessors":[{"bufferView":0,"byteOffset":0,"componentType":5126,"count":64,"type":"VEC3","min":[-3.5,0.0,-3.5],"max":[3.5,0.0,3.5]},{"bufferView":1,"byteOffset":0,"componentType":5126,"count":64,"type":"VEC3"},{"bufferView":2,"byteOffset":0,"componentType":5123,"count":294,"type":"SCALAR"},{"bufferView":3,"byteOffset":0,"componentType":5126,"count":3,"type":"SCALAR","min":[0.0],"max":[2.0]},{"bufferView":4,"byteOffset":0,"componentType":5126,"count":3,"type":"SCALAR"},{"bufferView":5,"byteOffset":0,"componentType":5126,"count":3,"type":"VEC3"}],"materials":[{"pbrMetallicRoughness":{"baseColorFactor":[0.0,0.45,0.6,1.0],"metallicFactor":0.0,"roughnessFactor":0.9}}],"animations":[{"name":"SeaAndShipAnim","samplers":[{"input":3,"interpolation":"LINEAR","output":4},{"input":3,"interpolation":"LINEAR","output":5}],"channels":[{"sampler":0,"target":{"node":0,"path":"weights"}},{"sampler":1,"target":{"node":1,"path":"translation"}}]}]}